# xmcd
#
# Track frame offsets:
#	150
#	12753
#	28047
#	40328
#	54119
#	67048
#	79809
#	92733
#	105278
#	119361
#	131552
#	144226
#	157479
#	167397
#	179911
#	192961
#	202274
#
# Disc length: 2907 seconds
#
# Revision: 3
# Processed by: cddbd v1.5.2PL0 Copyright (c) Steve Scherf et al.
# Submitted via: audiograbber 1.83.01
#
DISCID=ec0b5911
DTITLE=Various Artist - Blues Is Black [CD 2)
DYEAR=1999
DGENRE=Blues
TTITLE0=John Lee Williamson - Black Gal Blues
TTITLE1=Davis - C.C. Rider
TTITLE2=Brownie McGhee - Death Of Blind Boy Fuller (2)
TTITLE3=Blind Willie McTell - Georgia Rag
TTITLE4=Big Joe Turner - Howlin'  Winds
TTITLE5=Jimmy Yancey - Yancey Stomp
TTITLE6=Memphis Minnie - Joe Louis Strut
TTITLE7=Champion Jack Dupree - Gamblin Man Blues
TTITLE8=John Lee Hooker - Stomp Boogie
TTITLE9=Muddy Waters - I Can't Be Satisfied
TTITLE10=Bukka White - Pinebluff, Arkansas
TTITLE11=Robert Johnson - Preaching Blues
TTITLE12=Huddie "Leadbelly" Ledbetter - Midnight Special
TTITLE13=Brownie McGhee - Step It Up And Go No
TTITLE14=Peter Chatman - Jasper's Gal
TTITLE15=Lightin Hopkins - Can't Do Like You Used To
TTITLE16=Bessie Smith - Cemetery Blues
EXTD=
EXTT0=
EXTT1=
EXTT2=
EXTT3=
EXTT4=
EXTT5=
EXTT6=
EXTT7=
EXTT8=
EXTT9=
EXTT10=
EXTT11=
EXTT12=
EXTT13=
EXTT14=
EXTT15=
EXTT16=
PLAYORDER=
